<svg width="20" height="16" viewBox="0 0 20 16" fill="none" xmlns="http://www.w3.org/2000/svg">
<path d="M14.1663 15.5V13.8333C14.1663 12.9493 13.8152 12.1014 13.19 11.4763C12.5649 10.8512 11.7171 10.5 10.833 10.5H4.16634C3.28229 10.5 2.43444 10.8512 1.80932 11.4763C1.1842 12.1014 0.833008 12.9493 0.833008 13.8333V15.5M19.1663 15.5V13.8333C19.1658 13.0948 18.92 12.3773 18.4675 11.7936C18.015 11.2099 17.3814 10.793 16.6663 10.6083M13.333 0.608333C14.05 0.791918 14.6855 1.20892 15.1394 1.79359C15.5932 2.37827 15.8395 3.09736 15.8395 3.8375C15.8395 4.57764 15.5932 5.29673 15.1394 5.88141C14.6855 6.46608 14.05 6.88308 13.333 7.06667M10.833 3.83333C10.833 5.67428 9.34062 7.16667 7.49967 7.16667C5.65872 7.16667 4.16634 5.67428 4.16634 3.83333C4.16634 1.99238 5.65872 0.5 7.49967 0.5C9.34062 0.5 10.833 1.99238 10.833 3.83333Z" stroke="currentColor" stroke-linecap="round" stroke-linejoin="round"/>
</svg>
